<?xml version="1.0" encoding="UTF-8"?>
<svg id="Layer_2"
    xmlns="http://www.w3.org/2000/svg" viewBox="0 0 227 335">
    <g id="Layer_1-2">
        <g>
        <path d="M29.54,167.79c0-37.66,3.71-63.45,9.46-85.48,6.65-25.5,11-47.11,11-82.31H20.46c0,35.2-4.35,56.81-11,82.31C3.71,104.34,0,130.13,0,167.79s3.71,63.45,9.46,85.48c6.65,25.5,11,47.11,11,82.31h29.54c0-35.2-4.35-56.81-11-82.31-5.75-22.03-9.46-47.82-9.46-85.48Z" fill="#c64430" shape-rendering="geometricPrecision"/>
        <path d="M59.1,167.79c0-37.66,3.71-63.45,9.46-85.48,6.65-25.5,11-47.11,11-82.31h-29.54c0,35.2-4.35,56.81-11,82.31-5.75,22.03-9.46,47.82-9.46,85.48s3.71,63.45,9.46,85.48c6.65,25.5,11,47.11,11,82.31h29.54c0-35.2-4.35-56.81-11-82.31-5.75-22.03-9.46-47.82-9.46-85.48Z" fill="#f69800" shape-rendering="geometricPrecision"/>
        <path d="M88.65,167.79c0-37.66,3.71-63.45,9.46-85.48,6.65-25.5,11-47.11,11-82.31h-29.54c0,35.2-4.35,56.81-11,82.31-5.75,22.03-9.46,47.82-9.46,85.48s3.71,63.45,9.46,85.48c6.65,25.5,11,47.11,11,82.31h29.54c0-35.2-4.35-56.81-11-82.31-5.75-22.03-9.46-47.82-9.46-85.48Z" fill="#fbd024" shape-rendering="geometricPrecision"/>
        <path d="M118.2,167.79c0-37.66,3.71-63.45,9.46-85.48,6.65-25.5,11-47.11,11-82.31h-29.54c0,35.2-4.35,56.81-11,82.31-5.75,22.03-9.46,47.82-9.46,85.48s3.71,63.45,9.46,85.48c6.65,25.5,11,47.11,11,82.31h29.54c0-35.2-4.35-56.81-11-82.31-5.75-22.03-9.46-47.82-9.46-85.48Z" fill="#94d22f" shape-rendering="geometricPrecision"/>
        <path d="M147.75,167.79c0-37.66,3.71-63.45,9.46-85.48,6.65-25.5,11-47.11,11-82.31h-29.54c0,35.2-4.35,56.81-11,82.31-5.75,22.03-9.46,47.82-9.46,85.48s3.71,63.45,9.46,85.48c6.65,25.5,11,47.11,11,82.31h29.54c0-35.2-4.35-56.81-11-82.31-5.74-22.03-9.46-47.82-9.46-85.48Z" fill="#1f80e0" shape-rendering="geometricPrecision"/>
        <path d="M177.3,167.79c0-37.66,3.71-63.45,9.46-85.48,6.65-25.5,11-47.11,11-82.31h-29.54c0,35.2-4.35,56.81-11,82.31-5.74,22.03-9.46,47.82-9.46,85.48s3.71,63.45,9.46,85.48c6.65,25.5,11,47.11,11,82.31h29.54c0-35.2-4.35-56.81-11-82.31-5.75-22.03-9.46-47.82-9.46-85.48Z" fill="#5c3eea" shape-rendering="geometricPrecision"/>
        <path d="M206.85,167.79c0-37.66,3.71-63.45,9.46-85.48,6.65-25.5,11-47.11,11-82.31h-29.54c0,35.2-4.35,56.81-11,82.31-5.75,22.03-9.46,47.82-9.46,85.48s3.71,63.45,9.46,85.48c6.65,25.5,11,47.11,11,82.31h29.54c0-35.2-4.35-56.81-11-82.31-5.75-22.03-9.46-47.82-9.46-85.48Z" fill="#bf5de9" shape-rendering="geometricPrecision"/>
        </g>
    </g>
</svg>
